HIERARCHY
ROOT Hips
{
	OFFSET -0.001795 -0.223333 0.028219
	CHANNELS 6 Xposition Yposition Zposition Zrotation Yrotation Xrotation 
	JOINT LeftUpLeg
	{
		OFFSET 0.069520 -0.091406 -0.006815
		CHANNELS 3 Zrotation Yrotation Xrotation
		JOINT LeftLeg
		{
			OFFSET 0.034277 -0.375199 -0.004496
			CHANNELS 3 Zrotation Yrotation Xrotation
			JOINT LeftFoot
			{
				OFFSET -0.013596 -0.397961 -0.043693
				CHANNELS 3 Zrotation Yrotation Xrotation
				JOINT LeftToe
				{
					OFFSET 0.026358 -0.055791 0.119288
					CHANNELS 3 Zrotation Yrotation Xrotation
					End Site
					{
						OFFSET 0.000000 0.000000 0.000000
					}
				}
			}
		}
	}
	JOINT RightUpLeg
	{
		OFFSET -0.067670 -0.090522 -0.004320
		CHANNELS 3 Zrotation Yrotation Xrotation
		JOINT RightLeg
		{
			OFFSET -0.038290 -0.382569 -0.008850
			CHANNELS 3 Zrotation Yrotation Xrotation
			JOINT RightFoot
			{
				OFFSET 0.015774 -0.398415 -0.042312
				CHANNELS 3 Zrotation Yrotation Xrotation
				JOINT RightToe
				{
					OFFSET -0.025372 -0.048144 0.123348
					CHANNELS 3 Zrotation Yrotation Xrotation
					End Site
					{
						OFFSET 0.000000 0.000000 0.000000
					}
				}
			}
		}
	}
	JOINT Spine
	{
		OFFSET -0.002533 0.108963 -0.026696
		CHANNELS 3 Zrotation Yrotation Xrotation
		JOINT Spine1
		{
			OFFSET 0.005487 0.135180 0.001092
			CHANNELS 3 Zrotation Yrotation Xrotation
			JOINT Spine2
			{
				OFFSET 0.001457 0.052922 0.025425
				CHANNELS 3 Zrotation Yrotation Xrotation
				JOINT Neck
				{
					OFFSET -0.002778 0.213870 -0.042857
					CHANNELS 3 Zrotation Yrotation Xrotation
					JOINT Head
					{
						OFFSET 0.005152 0.064970 0.051349
						CHANNELS 3 Zrotation Yrotation Xrotation
						End Site
						{
							OFFSET 0.000000 0.000000 0.000000
						}
					}
				}
				JOINT LeftShoulder
				{
					OFFSET 0.078845 0.121749 -0.034090
					CHANNELS 3 Zrotation Yrotation Xrotation
					JOINT LeftArm
					{
						OFFSET 0.090977 0.030469 -0.008868
						CHANNELS 3 Zrotation Yrotation Xrotation
						JOINT LeftForeArm
						{
							OFFSET 0.259612 -0.012772 -0.027456
							CHANNELS 3 Zrotation Yrotation Xrotation
							JOINT LeftHand
							{
								OFFSET 0.249234 0.008986 -0.001171
								CHANNELS 3 Zrotation Yrotation Xrotation
								End Site
								{
									OFFSET 0.000000 0.000000 0.000000
								}
							}
						}
					}
				}
				JOINT RightShoulder
				{
					OFFSET -0.081759 0.118833 -0.038615
					CHANNELS 3 Zrotation Yrotation Xrotation
					JOINT RightArm
					{
						OFFSET -0.096012 0.032551 -0.009143
						CHANNELS 3 Zrotation Yrotation Xrotation
						JOINT RightForeArm
						{
							OFFSET -0.253742 -0.013329 -0.021401
							CHANNELS 3 Zrotation Yrotation Xrotation
							JOINT RightHand
							{
								OFFSET -0.255298 0.007772 -0.005559
								CHANNELS 3 Zrotation Yrotation Xrotation
								End Site
								{
									OFFSET 0.000000 0.000000 0.000000
								}
							}
						}
					}
				}
			}
		}
	}
}
MOTION
Frames: 10
Frame Time: 0.050000
-0.953116 0.926253 0.985875 -9.668796 -45.466763 1.920521 11.246229 1.823045 -3.267368 0.955114 6.468431 35.705421 5.617897 11.296939 5.385336 0.000000 0.000000 0.000000 -11.144508 4.753332 -30.617159 5.768092 3.844596 31.075591 8.512255 -4.228298 26.181792 0.000000 0.000000 0.000000 -0.908916 3.399457 32.220243 8.345527 0.748664 -36.698917 -13.316912 -3.375538 33.752485 2.759985 -5.634370 -31.538567 0.000000 0.000000 0.000000 -15.840049 -14.117259 12.802773 -27.928349 -31.986737 0.405594 17.346494 -48.759160 -3.314538 0.000000 0.000000 0.000000 32.731459 1.155710 -15.796786 18.596658 -10.584856 -2.104121 -12.934819 30.995570 -3.563473 0.000000 0.000000 0.000000 
-0.935020 0.923175 0.993562 -9.181875 -42.202801 0.969140 10.278893 1.443003 -2.392043 1.552833 5.168186 34.727169 3.231411 7.529667 -0.910315 0.000000 0.000000 0.000000 -11.260994 4.990806 -32.855086 12.959442 3.145636 40.434688 2.645520 -9.265761 21.570524 0.000000 0.000000 0.000000 0.913593 2.877732 34.155531 4.107605 0.679241 -36.419145 -12.380741 -6.187470 33.984724 2.189119 -5.560399 -29.082375 0.000000 0.000000 0.000000 -18.757953 -14.418960 14.322444 -26.671097 -28.943138 -0.797382 15.911662 -48.348645 -3.168325 0.000000 0.000000 0.000000 32.313404 0.978727 -15.669364 19.067638 -15.126616 -2.840165 -7.047144 28.823395 -1.733161 0.000000 0.000000 0.000000 
-0.927552 0.920127 1.003919 -8.844062 -37.731287 0.597669 9.537513 1.109037 -3.113216 1.927092 3.817327 33.654645 3.417540 7.894694 -1.477543 0.000000 0.000000 0.000000 -9.846825 4.640289 -32.328568 16.440926 1.635643 43.676337 0.394731 -9.949044 16.819463 0.000000 0.000000 0.000000 1.451341 2.225410 34.346738 2.270223 0.619209 -35.526052 -12.525264 -5.726114 33.878596 5.481710 -6.486812 -31.653622 0.000000 0.000000 0.000000 -23.226987 -15.334308 16.138636 -22.288230 -25.362785 -2.156357 21.336284 -48.397337 -6.278384 0.000000 0.000000 0.000000 32.571406 -0.091657 -14.912906 21.615859 -19.158870 -4.238133 -1.580945 25.356251 -0.198689 0.000000 0.000000 0.000000 
-0.928762 0.922214 1.017034 -7.735976 -34.161641 -0.153281 9.573904 0.970894 -3.369189 1.495304 3.237409 33.010127 1.967568 4.493961 0.473196 0.000000 0.000000 0.000000 -5.255751 4.610113 -30.380733 13.823219 2.313618 44.951121 -1.205870 -10.560430 12.152964 0.000000 0.000000 0.000000 1.220516 1.837311 34.072192 1.533932 0.652048 -35.764683 -13.348916 -4.410864 34.578445 8.357439 -7.743651 -29.921025 0.000000 0.000000 0.000000 -24.181406 -14.242600 15.014491 -22.818501 -22.419845 -2.647945 22.208924 -49.733079 -6.915997 0.000000 0.000000 0.000000 32.575169 -0.027602 -13.212663 23.383604 -21.545439 -5.417837 3.048292 23.025635 0.800624 0.000000 0.000000 0.000000 
-0.936599 0.930234 1.032622 -6.877979 -29.164666 0.505710 8.854423 0.662095 -2.749930 2.106661 1.631399 29.813705 1.048252 2.453141 0.059319 0.000000 0.000000 0.000000 -1.704096 3.512899 -24.461367 8.648357 2.522720 37.864119 -0.747620 -7.446782 7.872724 0.000000 0.000000 0.000000 1.673052 0.867989 31.686618 -1.966822 0.965237 -33.934841 -10.977218 -4.693334 32.541390 5.886027 -5.579955 -29.806661 0.000000 0.000000 0.000000 -24.724707 -12.792843 13.666619 -23.662070 -19.342986 -2.949900 17.987378 -52.136973 -5.180462 0.000000 0.000000 0.000000 31.862888 -1.478739 -12.891910 27.313796 -24.250453 -7.191742 6.608895 23.309889 1.469230 0.000000 0.000000 0.000000 
-0.948064 0.941848 1.049970 -5.362925 -25.023803 1.779882 8.312795 0.434220 -3.544019 1.297128 1.163082 27.357097 0.617895 1.873472 3.260271 0.000000 0.000000 0.000000 0.524341 2.492619 -18.683224 1.824534 3.002349 29.218683 0.841767 -3.792861 7.391482 0.000000 0.000000 0.000000 1.668975 0.322002 29.576311 -4.524103 1.332349 -32.576767 -8.875176 -2.495848 29.555569 5.999475 -4.865490 -27.208447 0.000000 0.000000 0.000000 -26.644628 -12.891389 12.996633 -23.829132 -16.073975 -3.194560 11.481248 -51.191598 -2.292605 0.000000 0.000000 0.000000 32.177924 -1.665077 -11.188298 35.206158 -23.844923 -9.769687 5.811958 26.531494 1.603301 0.000000 0.000000 0.000000 
-0.958981 0.952787 1.066939 -4.289989 -20.292656 2.966925 7.945025 0.225600 -6.785870 2.185196 0.456253 29.203902 -1.370456 -0.819622 7.877015 0.000000 0.000000 0.000000 0.152920 1.930337 -16.035016 -0.381263 2.509379 24.263860 0.908036 -5.159209 10.381093 0.000000 0.000000 0.000000 2.029956 -0.261748 27.504772 -6.258381 1.742175 -33.580040 -6.214669 2.230620 31.301747 4.196576 -2.437917 -29.057446 0.000000 0.000000 0.000000 -27.883945 -12.239347 10.651694 -25.937092 -15.323945 -3.207751 3.426155 -49.089699 1.317994 0.000000 0.000000 0.000000 33.562746 -2.587042 -9.032758 41.138325 -15.975852 -9.964421 5.928483 25.648443 1.899160 0.000000 0.000000 0.000000 
-0.966844 0.962330 1.084019 -3.722000 -13.261256 2.956731 8.701767 0.113992 -10.210212 1.702454 -0.095899 32.175682 -2.379304 -0.775894 11.812854 0.000000 0.000000 0.000000 -1.420932 1.185700 -11.716669 1.593279 0.960262 18.962277 -1.170082 -9.408332 13.246796 0.000000 0.000000 0.000000 2.420889 -0.877757 26.000237 -7.539645 1.984773 -30.994810 -3.420427 5.249730 29.109451 4.579745 -1.353376 -28.198137 0.000000 0.000000 0.000000 -32.441249 -11.545219 7.633018 -25.854776 -12.034322 -2.936787 -2.189749 -46.368959 3.099242 0.000000 0.000000 0.000000 34.546853 -0.911105 -4.494097 44.020309 -5.991958 -8.120098 5.501255 25.068749 2.092973 0.000000 0.000000 0.000000 
-0.970668 0.968981 1.102994 -1.656279 -6.268114 3.000147 8.765489 -0.110398 -16.367734 -3.167928 1.027231 32.597910 0.450359 7.150922 22.176167 0.000000 0.000000 0.000000 -4.298607 0.653863 -7.400924 3.253272 0.029011 14.249309 -2.255104 -11.065890 15.941949 0.000000 0.000000 0.000000 1.813030 -1.134573 25.332788 -8.224143 2.209981 -29.633938 -1.372236 9.262284 28.194055 4.473140 0.158347 -28.185108 0.000000 0.000000 0.000000 -33.085299 -10.617145 2.903433 -27.820843 -9.378641 -2.479027 -8.242867 -42.795493 4.719605 0.000000 0.000000 0.000000 34.849765 -1.036354 -0.692426 43.198494 5.557781 -5.275695 6.576862 24.304423 2.483288 0.000000 0.000000 0.000000 
-0.970859 0.971247 1.124561 -0.675896 -0.879433 2.641802 9.017999 -0.354547 -20.613377 -7.694045 1.975540 28.451876 4.484187 13.004854 20.232437 0.000000 0.000000 0.000000 -5.288895 0.329653 -3.107882 3.566506 -0.273387 10.145117 -3.975689 -13.738322 19.876041 0.000000 0.000000 0.000000 1.771688 -1.429718 25.287718 -8.294242 2.204218 -31.144685 0.499371 15.060610 29.780884 6.574860 0.475891 -27.792044 0.000000 0.000000 0.000000 -33.256860 -11.776813 -0.809303 -28.004751 -6.033980 -2.073793 -13.106044 -38.330587 5.335713 0.000000 0.000000 0.000000 34.761736 -1.821748 3.050375 40.854088 16.982885 -2.995060 5.629171 25.632663 2.699409 0.000000 0.000000 0.000000 
